<mxfile host="app.diagrams.net" modified="2024-06-08T19:20:16.467Z" agent="Mozilla/5.0 (Windows NT 10.0; Win64; x64) AppleWebKit/537.36 (KHTML, like Gecko) Chrome/125.0.0.0 Safari/537.36" etag="8TcFetb-_4VOHb2-BFuH" version="24.5.1" type="github">
  <diagram name="Página-1" id="Rx-BJTyZ90HZr9_cPE7K">
    <mxGraphModel dx="2580" dy="434" grid="1" gridSize="10" guides="1" tooltips="1" connect="1" arrows="1" fold="1" page="1" pageScale="1" pageWidth="850" pageHeight="1100" math="0" shadow="0">
      <root>
        <mxCell id="0" />
        <mxCell id="1" parent="0" />
        <mxCell id="9hzHolV_DFQ3AIEkWhB6-2" value="&lt;div&gt;&lt;span style=&quot;mso-spacerun:&#39;yes&#39;;font-size:19.995pt;font-family:GlacialIndifference-Bold;color:rgb(245,130,53);font-weight:bold;&quot;&gt;VIOLENCIA&lt;/span&gt;&lt;/div&gt;" style="ellipse;shape=cloud;whiteSpace=wrap;html=1;fillColor=#fff2cc;strokeColor=#d6b656;" vertex="1" parent="1">
          <mxGeometry x="-990" y="280" width="240" height="80" as="geometry" />
        </mxCell>
        <mxCell id="9hzHolV_DFQ3AIEkWhB6-3" value="" style="shape=curlyBracket;whiteSpace=wrap;html=1;rounded=1;labelPosition=left;verticalLabelPosition=middle;align=right;verticalAlign=middle;strokeWidth=3;" vertex="1" parent="1">
          <mxGeometry x="-730" y="25" width="20" height="590" as="geometry" />
        </mxCell>
        <mxCell id="9hzHolV_DFQ3AIEkWhB6-4" value="&lt;div&gt;&lt;span style=&quot;font-size: 15pt; font-family: GlacialIndifference-Bold; font-weight: bold;&quot;&gt;&lt;font color=&quot;#44963b&quot;&gt;FISICA&lt;/font&gt;&lt;/span&gt;&lt;/div&gt;" style="ellipse;whiteSpace=wrap;html=1;fillColor=#d5e8d4;strokeColor=#82b366;" vertex="1" parent="1">
          <mxGeometry x="-700" y="80" width="120" height="50" as="geometry" />
        </mxCell>
        <mxCell id="9hzHolV_DFQ3AIEkWhB6-5" value="&lt;div&gt;&lt;span style=&quot;font-size: 15pt; font-family: GlacialIndifference-Bold; font-weight: bold;&quot;&gt;&lt;font color=&quot;#36782f&quot;&gt;PSICOLOGICA&lt;/font&gt;&lt;/span&gt;&lt;/div&gt;" style="ellipse;whiteSpace=wrap;html=1;fillColor=#d5e8d4;strokeColor=#82b366;" vertex="1" parent="1">
          <mxGeometry x="-700" y="295" width="165" height="50" as="geometry" />
        </mxCell>
        <mxCell id="9hzHolV_DFQ3AIEkWhB6-6" value="&lt;div&gt;&lt;span style=&quot;font-family: GlacialIndifference-Bold; font-weight: bold;&quot;&gt;&lt;font color=&quot;#36782f&quot; style=&quot;font-size: 25px;&quot;&gt;sexual&amp;nbsp;&lt;/font&gt;&lt;/span&gt;&lt;/div&gt;" style="ellipse;whiteSpace=wrap;html=1;fillColor=#d5e8d4;strokeColor=#82b366;" vertex="1" parent="1">
          <mxGeometry x="-700" y="510" width="120" height="50" as="geometry" />
        </mxCell>
        <mxCell id="9hzHolV_DFQ3AIEkWhB6-7" value="" style="shape=curlyBracket;whiteSpace=wrap;html=1;rounded=1;labelPosition=left;verticalLabelPosition=middle;align=right;verticalAlign=middle;strokeWidth=3;" vertex="1" parent="1">
          <mxGeometry x="-515" y="20" width="20" height="180" as="geometry" />
        </mxCell>
        <mxCell id="9hzHolV_DFQ3AIEkWhB6-8" value="&lt;div&gt;&lt;span style=&quot;font-size: 13.995pt; font-family: GlacialIndifference;&quot;&gt;&lt;font color=&quot;#330033&quot;&gt;Aumentar el riesgo&lt;br&gt;&lt;/font&gt;&lt;/span&gt;&lt;/div&gt;&lt;div&gt;&lt;span style=&quot;font-size: 13.995pt; font-family: GlacialIndifference;&quot;&gt;&lt;font color=&quot;#330033&quot;&gt;de fumar, consumir&lt;br&gt;&lt;/font&gt;&lt;/span&gt;&lt;/div&gt;&lt;div&gt;&lt;span style=&quot;font-size: 13.995pt; font-family: GlacialIndifference;&quot;&gt;&lt;font color=&quot;#330033&quot;&gt;alcohol o uso de&lt;br&gt;&lt;/font&gt;&lt;/span&gt;&lt;/div&gt;&lt;div&gt;&lt;span style=&quot;font-size: 13.995pt; font-family: GlacialIndifference;&quot;&gt;&lt;font color=&quot;#330033&quot;&gt;drogas; de sufrir&lt;br&gt;&lt;/font&gt;&lt;/span&gt;&lt;/div&gt;&lt;div&gt;&lt;span style=&quot;font-size: 13.995pt; font-family: GlacialIndifference;&quot;&gt;&lt;font color=&quot;#330033&quot;&gt;enfermedades&lt;br&gt;&lt;/font&gt;&lt;/span&gt;&lt;/div&gt;&lt;div&gt;&lt;span style=&quot;font-size: 13.995pt; font-family: GlacialIndifference;&quot;&gt;&lt;font color=&quot;#330033&quot;&gt;mentales o tendencia&lt;br&gt;&lt;/font&gt;&lt;/span&gt;&lt;/div&gt;&lt;div&gt;&lt;span style=&quot;font-size: 13.995pt; font-family: GlacialIndifference;&quot;&gt;&lt;font color=&quot;#330033&quot;&gt;al suicidio.&lt;/font&gt;&lt;/span&gt;&lt;/div&gt;" style="rounded=1;whiteSpace=wrap;html=1;fillColor=#e1d5e7;strokeColor=#9673a6;" vertex="1" parent="1">
          <mxGeometry x="-495" y="30" width="230" height="160" as="geometry" />
        </mxCell>
        <mxCell id="9hzHolV_DFQ3AIEkWhB6-9" value="" style="shape=curlyBracket;whiteSpace=wrap;html=1;rounded=1;labelPosition=left;verticalLabelPosition=middle;align=right;verticalAlign=middle;strokeWidth=3;" vertex="1" parent="1">
          <mxGeometry x="-515" y="230" width="20" height="180" as="geometry" />
        </mxCell>
        <mxCell id="9hzHolV_DFQ3AIEkWhB6-10" value="&lt;div&gt;&lt;span style=&quot;mso-spacerun:&#39;yes&#39;;font-size:15.9975pt;font-family:GlacialIndifference;color:rgb(34,34,34);&quot;&gt;Construyen&lt;br/&gt;&lt;/span&gt;&lt;/div&gt;&lt;div&gt;&lt;span style=&quot;mso-spacerun:&#39;yes&#39;;font-size:15.9975pt;font-family:GlacialIndifference;color:rgb(34,34,34);&quot;&gt;sentimientos de&lt;br/&gt;&lt;/span&gt;&lt;/div&gt;&lt;div&gt;&lt;span style=&quot;mso-spacerun:&#39;yes&#39;;font-size:15.9975pt;font-family:GlacialIndifference;color:rgb(34,34,34);&quot;&gt;vergüenza y&lt;br/&gt;&lt;/span&gt;&lt;/div&gt;&lt;div&gt;&lt;span style=&quot;mso-spacerun:&#39;yes&#39;;font-size:15.9975pt;font-family:GlacialIndifference;color:rgb(34,34,34);&quot;&gt;culpabilidad,&lt;br/&gt;&lt;/span&gt;&lt;/div&gt;&lt;div&gt;&lt;span style=&quot;mso-spacerun:&#39;yes&#39;;font-size:15.9975pt;font-family:GlacialIndifference;color:rgb(34,34,34);&quot;&gt;fobias, trastornos&lt;br/&gt;&lt;/span&gt;&lt;/div&gt;&lt;div&gt;&lt;span style=&quot;mso-spacerun:&#39;yes&#39;;font-size:15.9975pt;font-family:GlacialIndifference;color:rgb(34,34,34);&quot;&gt;de pánico.&amp;nbsp;&lt;/span&gt;&lt;/div&gt;" style="rounded=1;whiteSpace=wrap;html=1;fillColor=#e1d5e7;strokeColor=#9673a6;" vertex="1" parent="1">
          <mxGeometry x="-495" y="240" width="230" height="160" as="geometry" />
        </mxCell>
        <mxCell id="9hzHolV_DFQ3AIEkWhB6-11" value="" style="shape=curlyBracket;whiteSpace=wrap;html=1;rounded=1;labelPosition=left;verticalLabelPosition=middle;align=right;verticalAlign=middle;strokeWidth=3;" vertex="1" parent="1">
          <mxGeometry x="-515" y="445" width="20" height="180" as="geometry" />
        </mxCell>
        <mxCell id="9hzHolV_DFQ3AIEkWhB6-12" value="&lt;div&gt;&lt;span style=&quot;mso-spacerun:&#39;yes&#39;;font-size:16.995pt;font-family:GlacialIndifference;color:rgb(34,34,34);&quot;&gt;Infecciones de&lt;br/&gt;&lt;/span&gt;&lt;/div&gt;&lt;div&gt;&lt;span style=&quot;mso-spacerun:&#39;yes&#39;;font-size:16.995pt;font-family:GlacialIndifference;color:rgb(34,34,34);&quot;&gt;transmisión&lt;br/&gt;&lt;/span&gt;&lt;/div&gt;&lt;div&gt;&lt;span style=&quot;mso-spacerun:&#39;yes&#39;;font-size:16.995pt;font-family:GlacialIndifference;color:rgb(34,34,34);&quot;&gt;sexual.&lt;br/&gt;&lt;/span&gt;&lt;/div&gt;&lt;div&gt;&lt;span style=&quot;mso-spacerun:&#39;yes&#39;;font-size:16.995pt;font-family:GlacialIndifference;color:rgb(34,34,34);&quot;&gt;Embarazos no&lt;br/&gt;&lt;/span&gt;&lt;/div&gt;&lt;div&gt;&lt;span style=&quot;mso-spacerun:&#39;yes&#39;;font-size:16.995pt;font-family:GlacialIndifference;color:rgb(34,34,34);&quot;&gt;deseados.&amp;nbsp;&lt;/span&gt;&lt;/div&gt;" style="rounded=1;whiteSpace=wrap;html=1;fillColor=#e1d5e7;strokeColor=#9673a6;" vertex="1" parent="1">
          <mxGeometry x="-495" y="455" width="230" height="160" as="geometry" />
        </mxCell>
        <mxCell id="9hzHolV_DFQ3AIEkWhB6-14" value="" style="shape=curlyBracket;whiteSpace=wrap;html=1;rounded=1;labelPosition=left;verticalLabelPosition=middle;align=right;verticalAlign=middle;strokeWidth=3;" vertex="1" parent="1">
          <mxGeometry x="-235" y="35" width="20" height="590" as="geometry" />
        </mxCell>
        <mxCell id="9hzHolV_DFQ3AIEkWhB6-15" value="&lt;font face=&quot;Helvetica&quot; style=&quot;font-size: 30px;&quot;&gt;&lt;b&gt;&lt;i&gt;Termina mayormente en suicidio&lt;/i&gt;&lt;/b&gt;&lt;/font&gt;" style="rounded=0;whiteSpace=wrap;html=1;rotation=-90;fillColor=#f5f5f5;fontColor=#333333;strokeColor=#666666;" vertex="1" parent="1">
          <mxGeometry x="-400" y="300" width="510" height="60" as="geometry" />
        </mxCell>
      </root>
    </mxGraphModel>
  </diagram>
</mxfile>
